<svg width="62" height="62" viewBox="0 0 62 62" fill="none" xmlns="http://www.w3.org/2000/svg">
<path fill-rule="evenodd" clip-rule="evenodd" d="M42.3571 49.0725V8.03687C42.3571 7.48458 42.8048 7.03687 43.3571 7.03687C43.8845 7.03687 44.3166 7.44522 44.3544 7.96303C44.3621 7.96645 44.3698 7.96997 44.3774 7.97361C46.6018 9.0304 48.3666 9.51914 49.9878 9.53066C51.5946 9.54209 53.1567 9.08519 54.9782 8.08264C55.4621 7.81634 56.0702 7.99269 56.3365 8.47653C56.6028 8.96037 56.4264 9.56848 55.9426 9.83478C53.9115 10.9527 52.0123 11.5451 49.9736 11.5306C48.1919 11.5179 46.3788 11.042 44.3571 10.162V15.0622C44.3725 15.0679 44.3879 15.074 44.4032 15.0806C46.5352 15.9925 48.2373 16.4188 49.8091 16.4301C51.3688 16.4414 52.8806 16.0445 54.6332 15.1815C55.1287 14.9376 55.7282 15.1415 55.9721 15.6369C56.2161 16.1324 56.0122 16.7319 55.5167 16.9758C53.5604 17.9391 51.7401 18.4441 49.7947 18.4301C48.0747 18.4177 46.3209 17.9998 44.3571 17.2243V51.9078C44.3706 51.9799 44.3829 52.0532 44.3939 52.1279C43.8959 54.7562 41.1231 56.0344 36.2898 56C31.4564 55.9656 27.4789 54.9667 27.5 52C27.5211 49.0333 31.1666 47.9656 36 48C38.733 48.0194 40.8999 48.2587 42.3571 49.0725ZM51.885 25.677L44.866 21.6279C39.8283 25.9959 33.3471 27.175 28.812 24.0582C24.7181 21.2445 23.3242 15.6956 24.7635 10.0313L16.4991 5.26376C16.4624 5.24259 16.4255 5.2223 16.3885 5.20287C16.5619 13.8662 21.4857 22.1418 29.8371 26.215C37.1171 29.7658 45.31 29.298 51.885 25.677ZM14.0973 5C11.2519 15.7685 16.3357 27.4162 26.7692 32.505C36.4362 37.2199 47.7127 34.8493 54.6735 27.4188C55.975 28.7619 55.7537 31.0889 54.0086 32.0972L37.1982 41.8107C34.339 41.6208 31.408 41.0169 28.5097 39.9621C20.75 37.1378 14.8883 31.6858 12.0063 25.4394L12 7.86343C11.9995 6.45926 12.9233 5.37493 14.0973 5ZM43.0459 20.5779L26.9691 11.3037C27.1974 14.9547 28.7348 18.1644 31.5384 20.0913C34.7901 22.3262 39.0425 22.3523 43.0459 20.5779ZM26.3223 45.9719C27.1076 46.2577 27.8953 46.5104 28.6833 46.7308L22.2105 50.4709C21.8915 50.3514 21.5737 50.2228 21.2573 50.0853C17.1153 48.2843 13.9313 45.2393 12.012 41.653L12.0098 35.2497C15.2373 39.8625 20.1864 43.7386 26.3223 45.9719ZM12.0147 49.2231C13.3707 50.8773 15.0387 52.3334 16.9768 53.4951L16.5163 53.7612C14.5168 54.9166 12.0163 53.4741 12.0154 51.1647L12.0147 49.2231Z" fill="url(#paint0_linear_3_108)"/>
<defs>
<linearGradient id="paint0_linear_3_108" x1="18" y1="20.9359" x2="37.4636" y2="54.8513" gradientUnits="userSpaceOnUse">
<stop stop-color="#FFCE2D"/>
<stop offset="0.515" stop-color="#FA9749"/>
<stop offset="1" stop-color="#F88254"/>
</linearGradient>
</defs>
</svg>
